<?xml version="1.0" standalone="no"?>
<!DOCTYPE svg PUBLIC "-//W3C//DTD SVG 20010904//EN"
 "http://www.w3.org/TR/2001/REC-SVG-20010904/DTD/svg10.dtd">
<svg version="1.0" xmlns="http://www.w3.org/2000/svg"
 width="1024.000000pt" height="1024.000000pt" viewBox="0 0 1024.000000 1024.000000"
 preserveAspectRatio="xMidYMid meet">
<metadata>
Created by potrace 1.14, written by Peter Selinger 2001-2017
</metadata>
<g transform="translate(0.000000,1024.000000) scale(0.100000,-0.100000)"
fill="#000000" stroke="none">
<path d="M0 5120 l0 -5120 5120 0 5120 0 0 5120 0 5120 -5120 0 -5120 0 0
-5120z m2928 3155 c189 -37 386 -119 557 -232 122 -81 303 -259 392 -386 132
-188 233 -432 274 -663 27 -153 30 -393 6 -504 -34 -154 -116 -269 -234 -327
-53 -25 -67 -28 -173 -28 -137 0 -184 14 -462 136 -322 142 -452 179 -633 179
-180 0 -292 -31 -605 -168 -278 -121 -346 -143 -461 -149 -81 -5 -106 -2 -160
16 -125 42 -216 140 -259 278 -32 103 -44 263 -31 408 69 776 619 1365 1361
1459 73 9 347 -3 428 -19z m4983 -4 c382 -81 711 -290 940 -596 212 -284 319
-605 319 -958 0 -154 -17 -261 -56 -346 -93 -205 -302 -287 -550 -215 -49 14
-143 48 -209 76 -443 186 -516 208 -711 215 -205 8 -333 -24 -688 -177 -284
-121 -328 -134 -471 -134 -116 -1 -123 0 -187 32 -121 59 -198 167 -234 327
-21 95 -24 315 -5 440 108 716 651 1258 1356 1354 111 16 384 5 496 -18z
m-2555 -2306 c423 -107 748 -492 829 -983 22 -128 17 -373 -9 -467 -86 -312
-298 -458 -698 -481 l-118 -7 0 -596 c0 -647 1 -662 57 -779 113 -239 423
-265 567 -48 51 76 75 161 85 290 9 121 26 168 77 220 121 120 319 84 396 -72
20 -41 23 -60 21 -149 -9 -537 -370 -935 -848 -935 -206 0 -407 79 -556 219
l-49 46 -49 -46 c-243 -227 -601 -283 -900 -142 -311 148 -497 467 -504 864
-2 108 17 164 78 220 99 91 245 89 339 -5 51 -51 68 -100 76 -214 10 -125 21
-174 61 -253 62 -123 167 -190 296 -190 64 0 82 4 141 34 82 42 150 124 184
227 23 67 23 72 26 688 l3 621 -118 7 c-338 19 -537 124 -642 339 -59 120 -73
180 -78 354 -6 180 10 303 62 460 148 444 483 745 897 803 99 14 264 3 374
-25z m-3383 -1525 c397 -66 740 -125 762 -131 198 -56 243 -316 74 -438 -85
-62 -58 -65 -892 74 -414 69 -770 131 -792 138 -59 17 -138 99 -153 159 -18
70 -14 117 12 174 26 55 93 120 141 133 16 5 51 10 78 10 26 1 373 -53 770
-119z m7121 108 c60 -18 139 -100 154 -160 7 -26 12 -64 12 -85 0 -86 -88
-201 -169 -223 -20 -5 -374 -66 -788 -135 -681 -113 -757 -124 -802 -114 -93
20 -169 96 -191 192 -25 115 49 246 160 282 48 16 1476 253 1529 254 29 1 72
-4 95 -11z m-6326 -967 c128 -65 183 -236 120 -372 -27 -59 -74 -110 -122
-133 -52 -25 -1545 -299 -1589 -292 -176 28 -268 236 -182 412 29 60 96 118
148 130 17 3 363 69 767 145 492 93 749 137 778 134 23 -3 59 -13 80 -24z
m5543 -111 c826 -153 834 -155 889 -232 125 -171 38 -423 -157 -454 -27 -4
-254 35 -798 136 -628 117 -768 146 -807 167 -117 64 -167 235 -105 364 30 63
40 76 87 111 33 25 85 45 121 47 9 1 356 -62 770 -139z"/>
<path d="M2515 7779 c-138 -20 -295 -84 -420 -170 -96 -66 -229 -205 -290
-304 -102 -163 -165 -375 -165 -554 l0 -90 148 65 c421 187 606 237 872 237
223 0 439 -53 727 -179 70 -31 163 -72 207 -90 l79 -34 -6 122 c-11 260 -110
493 -289 683 -233 247 -544 360 -863 314z"/>
<path d="M7472 7779 c-403 -52 -761 -369 -871 -769 -25 -94 -43 -229 -39 -297
l3 -53 171 74 c407 176 612 230 874 229 258 0 454 -51 847 -219 94 -41 179
-74 189 -74 15 0 16 9 10 98 -27 366 -200 665 -499 859 -197 128 -445 183
-685 152z"/>
<path d="M4998 5484 c-169 -40 -315 -167 -403 -349 -53 -110 -74 -191 -81
-315 -7 -113 7 -204 37 -236 42 -45 93 -49 564 -49 470 0 511 4 554 49 45 47
52 248 15 396 -22 88 -93 234 -146 297 -148 176 -349 254 -540 207z"/>
</g>
</svg>
